<svg width="512" height="512" viewBox="0 0 512 512" fill="none" xmlns="http://www.w3.org/2000/svg">
  <!-- Fondo -->
  <rect width="512" height="512" rx="128" fill="#1e293b"/>
  
  <!-- Grid CAD -->
  <g opacity="0.2">
    <line x1="128" y1="128" x2="384" y2="128" stroke="#60a5fa" stroke-width="2"/>
    <line x1="128" y1="192" x2="384" y2="192" stroke="#60a5fa" stroke-width="2"/>
    <line x1="128" y1="256" x2="384" y2="256" stroke="#60a5fa" stroke-width="2"/>
    <line x1="128" y1="320" x2="384" y2="320" stroke="#60a5fa" stroke-width="2"/>
    <line x1="128" y1="384" x2="384" y2="384" stroke="#60a5fa" stroke-width="2"/>
    
    <line x1="128" y1="128" x2="128" y2="384" stroke="#60a5fa" stroke-width="2"/>
    <line x1="192" y1="128" x2="192" y2="384" stroke="#60a5fa" stroke-width="2"/>
    <line x1="256" y1="128" x2="256" y2="384" stroke="#60a5fa" stroke-width="2"/>
    <line x1="320" y1="128" x2="320" y2="384" stroke="#60a5fa" stroke-width="2"/>
    <line x1="384" y1="128" x2="384" y2="384" stroke="#60a5fa" stroke-width="2"/>
  </g>
  
  <!-- Forma arquitectónica simple -->
  <path d="M 160 300 L 160 220 L 256 180 L 352 220 L 352 300 Z" fill="#3b82f6" opacity="0.8"/>
  <path d="M 256 180 L 352 220 L 352 300 L 256 340 Z" fill="#60a5fa" opacity="0.9"/>
  <path d="M 160 300 L 256 340 L 256 180 L 160 220 Z" fill="#2563eb" opacity="0.7"/>
  
  <!-- Líneas de construcción -->
  <line x1="140" y1="180" x2="372" y2="180" stroke="#60a5fa" stroke-width="3" stroke-dasharray="8 8"/>
  <line x1="140" y1="340" x2="372" y2="340" stroke="#60a5fa" stroke-width="3" stroke-dasharray="8 8"/>
</svg>
